Coordinates
version=1
nRows=7
nColumns=40
inDegrees=yes

Units are S.I. units (second, meters, Newtons, ...)
Angles are in degrees.

endheader
time	pelvis_tilt	pelvis_list	pelvis_rotation	pelvis_tx	pelvis_ty	pelvis_tz	hip_flexion_r	hip_adduction_r	hip_rotation_r	knee_angle_r	knee_angle_r_beta	ankle_angle_r	subtalar_angle_r	mtp_angle_r	hip_flexion_l	hip_adduction_l	hip_rotation_l	knee_angle_l	knee_angle_l_beta	ankle_angle_l	subtalar_angle_l	mtp_angle_l	lumbar_extension	lumbar_bending	lumbar_rotation	arm_flex_r	arm_add_r	arm_rot_r	elbow_flex_r	pro_sup_r	wrist_flex_r	wrist_dev_r	arm_flex_l	arm_add_l	arm_rot_l	elbow_flex_l	pro_sup_l	wrist_flex_l	wrist_dev_l
      2.55500000	     -5.41011094	     -5.11425540	    -10.85582023	      0.90096531	      0.92730887	      0.43479614	     28.43486707	      0.13542971	     -4.93778922	     27.56514875	     27.56514875	      5.62687954	     -4.52782645	     -2.78481209	      8.23904423	     -3.88684172	    -11.13321509	     21.15035981	     21.15035981	     19.95700199	    -15.95009777	      6.60851487	    -11.87229649	      9.42902411	      1.34214142	    -11.01616597	    -11.62099732	    -19.44078875	     23.83431055	     46.58030774	      0.00000000	      0.00000000	     28.80451725	    -22.11443441	      1.34189188	     62.73792704	     46.83203678	      0.00000000	      0.00000000
      2.57450000	     -5.53638794	     -4.85335181	    -11.45891647	      0.90093478	      0.92694663	      0.43768354	     27.83976603	      0.34119327	     -5.73413478	     23.46296050	     23.46296050	      5.31830801	     -0.74790743	     -1.73251046	      7.34502285	     -3.69613718	    -11.94424386	     20.11860887	     20.11860887	     19.91424492	    -15.47427975	      6.08562718	    -11.93776195	      9.29632212	      1.43714151	    -12.36846317	    -11.50355970	    -19.63606275	     24.10869975	     46.57449995	      0.00000000	      0.00000000	     30.05179087	    -22.63658839	      0.14810079	     64.28885695	     46.96380343	      0.00000000	      0.00000000
      2.59400000	     -5.74354161	     -4.48006764	    -11.98408136	      0.90124221	      0.92578612	      0.44066331	     27.58196410	      0.35580593	     -6.82647064	     20.43371461	     20.43371461	      5.56479711	      3.07817146	      1.08087474	      6.62994824	     -3.41062767	    -12.72042145	     19.20283051	     19.20283051	     19.38231912	    -15.24519420	      4.03146391	    -11.81493693	      9.05400966	      1.13483934	    -13.82703860	    -11.27829448	    -20.12546225	     26.10226634	     46.52115682	      0.00000000	      0.00000000	     30.55357271	    -22.82920658	     -2.83539638	     66.69803472	     47.25725957	      0.00000000	      0.00000000
      2.61350000	     -5.87718024	     -4.18628394	    -12.42217868	      0.90200830	      0.92449475	      0.44395293	     27.11468422	      0.57886462	     -7.40975537	     17.76041140	     17.76041140	      4.98399419	      5.20691330	      2.04882595	      5.91006576	     -3.19379345	    -13.27798064	     18.54937508	     18.54937508	     19.60467703	    -14.89681443	      3.66944896	    -11.66364651	      8.87972358	      1.23284418	    -14.60614520	    -11.16701944	    -20.13297473	     26.03471245	     46.51909247	      0.00000000	      0.00000000	     31.73100255	    -23.18689696	     -3.46174564	     67.55602256	     47.33132487	      0.00000000	      0.00000000
      2.63300000	     -5.99986724	     -3.87794776	    -12.76759585	      0.90318199	      0.92302928	      0.44736716	     26.75400345	      0.68446097	     -8.11166211	     15.93086464	     15.93086464	      4.42793348	      7.05929088	      2.69561601	      5.23449837	     -2.98301075	    -13.81295504	     18.02406704	     18.02406704	     19.84086239	    -14.48142516	      3.21662265	    -11.45863306	      8.70436792	      1.33963843	    -15.20218021	    -11.01511984	    -20.15803126	     26.16205434	     46.51070282	      0.00000000	      0.00000000	     32.75509382	    -23.31725143	     -4.23119736	     68.42581384	     47.41312390	      0.00000000	      0.00000000
      2.65250000	     -6.08056027	     -3.65195984	    -13.04824546	      0.90479527	      0.92161386	      0.45095985	     26.43718925	      0.78796163	     -8.80631541	     14.90010273	     14.90010273	      3.93143413	      8.45460980	      2.80424498	      4.49738886	     -2.86048690	    -14.31347082	     17.54986486	     17.54986486	     20.07100320	    -14.02182458	      2.65214122	    -11.30093850	      8.61789304	      1.47364150	    -15.67871000	    -10.91653096	    -20.19672968	     26.49198873	     46.49585328	      0.00000000	      0.00000000	     33.62027903	    -23.24522076	     -5.30760882	     69.33909559	     47.51624460	      0.00000000	      0.00000000
      2.67200000	     -6.28392921	     -3.46455216	    -13.24262784	      0.90659721	      0.92000702	      0.45484201	     26.49040229	      0.95043078	     -8.95559341	     14.80722116	     14.80722116	      3.65074275	      8.52163441	      2.82855599	      4.07070879	     -2.82791656	    -14.43534754	     17.44207613	     17.44207613	     20.41620570	    -14.05773506	      2.50933111	    -10.88944835	      8.60106509	      1.39504167	    -15.73010902	    -10.87992657	    -20.19950675	     26.52965146	     46.49389536	      0.00000000	      0.00000000	     34.20999291	    -23.43584462	     -5.52540085	     69.60862898	     47.54079283	      0.00000000	      0.00000000
